<svg width="59" height="59" viewBox="0 0 59 59" fill="none" xmlns="http://www.w3.org/2000/svg">
<path d="M59 28.8201C59.0391 33.8867 57.7436 38.8742 55.2437 43.2814C54.92 43.8539 54.5771 44.4139 54.215 44.9614C54.036 45.2396 53.8035 45.4796 53.531 45.6674C53.2586 45.8551 52.9516 45.9869 52.6278 46.0551C52.304 46.1233 51.9699 46.1266 51.6449 46.0647C51.3198 46.0028 51.0103 45.877 50.7342 45.6946C50.4582 45.5122 50.2211 45.2768 50.0367 45.002C49.8523 44.7273 49.7242 44.4187 49.66 44.0941C49.5958 43.7695 49.5966 43.4354 49.6625 43.1111C49.7284 42.7869 49.858 42.4789 50.0437 42.2051C52.4296 38.5834 53.7896 34.3829 53.9791 30.0501C54.1686 25.7174 53.1806 21.4142 51.1201 17.598C49.0595 13.7818 46.0035 10.5953 42.2768 8.37705C38.55 6.15883 34.2919 4.99183 29.955 5.00011C21.6187 5.01636 14.2275 9.39261 9.93124 15.9314C7.36295 19.8324 5.99628 24.4015 6.00073 29.072C6.00517 33.7425 7.38053 38.309 9.95624 42.2051C10.3214 42.7586 10.4518 43.4344 10.3186 44.084C10.1855 44.7336 9.79971 45.3037 9.24624 45.6689C8.69276 46.034 8.0169 46.1644 7.36732 46.0312C6.71774 45.8981 6.14766 45.5123 5.78249 44.9589C2.92649 40.6247 1.28603 35.6035 1.03227 30.4192C0.778518 25.2349 1.92077 20.0775 4.33985 15.4852C6.75892 10.8928 10.3662 7.03389 14.7851 4.31101C19.2041 1.58813 24.2729 0.101102 29.4625 0.00510735C29.645 0.00135736 29.8262 0.000107241 30.0075 0.000107241C37.6717 -0.0156795 45.0291 3.01014 50.4648 8.41341C55.9004 13.8167 58.97 21.1559 59 28.8201Z" fill="#494D4B"/>
<path d="M12.5054 33.471L17.0364 56.011C17.3084 57.3641 18.6258 58.2405 19.9789 57.9685C21.332 57.6965 22.2084 56.3791 21.9364 55.026L17.4054 32.486C17.1334 31.1329 15.816 30.2565 14.4629 30.5285C13.1098 30.8005 12.2334 32.1179 12.5054 33.471Z" fill="#04D361"/>
<path d="M16.95 55.5025L15.8013 55.7338C14.0943 56.0774 12.3206 55.756 10.8428 54.8352C9.36501 53.9144 8.29487 52.4637 7.85125 50.78C7.8175 50.65 7.78625 50.52 7.76 50.3875L6.11375 42.2088C5.75699 40.4334 6.11972 38.589 7.1222 37.0809C8.12469 35.5728 9.68492 34.5245 11.46 34.1662L12.6088 33.935L14.6238 43.945L16.95 55.5025Z" fill="#494D4B"/>
<path d="M16.95 55.5025L15.8012 55.7338C14.0943 56.0775 12.3206 55.756 10.8428 54.8352C9.365 53.9144 8.29486 52.4638 7.85124 50.78C10.279 48.677 12.5431 46.3921 14.6237 43.945L16.95 55.5025Z" fill="#494D4B"/>
<path d="M55.8362 40.34L55.2437 43.2813C54.92 43.8538 54.5771 44.4138 54.215 44.9613C54.036 45.2395 53.8035 45.4795 53.531 45.6673C53.2586 45.855 52.9516 45.9868 52.6278 46.055C52.304 46.1232 51.9699 46.1265 51.6449 46.0646C51.3198 46.0027 51.0103 45.8769 50.7342 45.6945C50.4582 45.5121 50.2211 45.2767 50.0367 45.002C49.8523 44.7272 49.7242 44.4186 49.66 44.094C49.5958 43.7694 49.5966 43.4353 49.6625 43.111C49.7284 42.7868 49.8579 42.4788 50.0437 42.205C51.7384 39.6404 52.9213 36.7724 53.5275 33.7588C54.4683 34.5469 55.1793 35.5742 55.5856 36.7323C55.9919 37.8905 56.0785 39.1368 55.8362 40.34Z" fill="#494D4B"/>
<path d="M52.8725 11.1275L49.2862 14.7138C47.0516 11.692 44.1375 9.23825 40.7794 7.55082C37.4213 5.86339 33.7132 4.98959 29.955 5.00003C21.6187 5.01628 14.2275 9.39253 9.93125 15.9313L6.29375 12.2938C8.91638 8.567 12.3815 5.51174 16.4073 3.37642C20.4332 1.24111 24.9061 0.0860014 29.4625 0.00502696C29.645 0.00127696 29.8262 2.68435e-05 30.0075 2.68435e-05C34.4146 -0.00984839 38.7657 0.987566 42.7285 2.9161C46.6913 4.84463 50.161 7.65327 52.8725 11.1275Z" fill="#8257E5"/>
<path d="M42.554 32.4616L38.023 55.0016C37.751 56.3547 38.6274 57.6721 39.9805 57.9441C41.3336 58.2161 42.651 57.3397 42.923 55.9866L47.454 33.4466C47.726 32.0935 46.8496 30.7761 45.4965 30.5041C44.1434 30.2321 42.826 31.1085 42.554 32.4616Z" fill="#04D361"/>
<path d="M53.8862 42.2087L52.24 50.3875C51.8826 52.1628 50.8346 53.7234 49.3266 54.726C47.8186 55.7286 45.974 56.0911 44.1987 55.7337L43.05 55.5025L44.24 49.5937L47.3912 33.935L48.54 34.1662C50.3149 34.5249 51.8752 35.5728 52.8787 37.08C53.0169 37.2878 53.1434 37.5031 53.2575 37.725C53.9708 39.1046 54.1925 40.6861 53.8862 42.2087Z" fill="#494D4B"/>
<path d="M53.8862 42.2088L52.24 50.3875C51.8826 52.1628 50.8346 53.7234 49.3266 54.726C47.8186 55.7286 45.974 56.0911 44.1987 55.7338L43.05 55.5025L44.24 49.5938C47.6645 45.9738 50.6879 41.9945 53.2575 37.725C53.9708 39.1047 54.1925 40.6862 53.8862 42.2088Z" fill="#494D4B"/>
</svg>
